<svg xmlns="http://www.w3.org/2000/svg" xmlns:xlink="http://www.w3.org/1999/xlink" version="1.1" id="Layer_1" x="0px" y="0px" viewBox="0 0 2018 1080" style="enable-background:new 0 0 2018 1080;" xml:space="preserve">
<style type="text/css">
	.st0{clip-path:url(#SVGID_00000088821250903046024100000014310633649872335264_);fill:#10141C;}
	.st1{clip-path:url(#SVGID_00000088821250903046024100000014310633649872335264_);}
	.st2{fill:#E3E4E4;}
	.st3{fill:#17E060;}
	.st4{fill:#1A1A1A;}
	.st5{fill:#00ADE6;}
	.st6{fill:#32EAE5;}
	.st7{fill:#9345CA;}
	.st8{fill:#004FD0;}
	.st9{fill:#FFD800;}
	.st10{fill:#00BCE9;}
</style>
<g>
	<defs>
		<rect id="SVGID_1_" width="2018" height="1080"/>
	</defs>
	<clipPath id="SVGID_00000070107202884101736480000004886592544570137018_">
		<use xlink:href="#SVGID_1_" style="overflow:visible;"/>
	</clipPath>
	
		<rect style="clip-path:url(#SVGID_00000070107202884101736480000004886592544570137018_);fill:#10141C;" width="2018" height="1080"/>
	<g style="clip-path:url(#SVGID_00000070107202884101736480000004886592544570137018_);">
		<g>
			<g>
				<g>
					<rect x="1474.42" y="417.96" class="st2" width="34.89" height="52.33"/>
					<rect x="1753.53" y="417.96" class="st2" width="34.89" height="52.33"/>
					<rect x="1509.31" y="417.96" class="st2" width="34.89" height="52.33"/>
					<rect x="1718.64" y="417.96" class="st2" width="34.89" height="52.33"/>
					<rect x="1509.31" y="470.29" class="st2" width="34.89" height="52.33"/>
					<rect x="1718.64" y="470.29" class="st2" width="34.89" height="52.33"/>
					<rect x="1544.2" y="417.96" class="st2" width="34.89" height="52.33"/>
					<rect x="1683.76" y="417.96" class="st2" width="34.89" height="52.33"/>
					<rect x="1544.2" y="470.29" class="st2" width="34.89" height="52.33"/>
					<rect x="1683.76" y="470.29" class="st2" width="34.89" height="52.33"/>
					<rect x="1648.87" y="470.29" class="st2" width="34.89" height="52.33"/>
					<rect x="1579.09" y="470.29" class="st2" width="34.89" height="52.33"/>
					<rect x="1648.87" y="522.62" class="st2" width="34.89" height="52.33"/>
					<rect x="1579.09" y="522.62" class="st2" width="34.89" height="52.33"/>
					<rect x="1613.98" y="522.62" class="st2" width="34.89" height="52.33"/>
					<rect x="1613.98" y="574.96" class="st2" width="34.89" height="52.33"/>
				</g>
			</g>
			<g>
				<rect x="1404.64" y="365.62" class="st2" width="34.89" height="52.33"/>
				<rect x="1823.31" y="365.62" class="st2" width="34.89" height="52.33"/>
				<rect x="1404.64" y="417.96" class="st2" width="34.89" height="52.33"/>
				<rect x="1404.64" y="470.29" class="st2" width="34.89" height="52.33"/>
				<rect x="1823.31" y="417.96" class="st2" width="34.89" height="52.33"/>
				<rect x="1823.31" y="470.29" class="st2" width="34.89" height="52.33"/>
				<rect x="1439.53" y="522.62" class="st2" width="34.89" height="52.33"/>
				<rect x="1474.42" y="522.62" class="st2" width="34.89" height="52.33"/>
				<rect x="1509.31" y="574.96" class="st2" width="34.89" height="52.33"/>
				<rect x="1753.53" y="522.62" class="st2" width="34.89" height="52.33"/>
				<rect x="1788.42" y="522.62" class="st2" width="34.89" height="52.33"/>
				<rect x="1544.2" y="574.96" class="st2" width="34.89" height="52.33"/>
				<rect x="1683.76" y="574.96" class="st2" width="34.89" height="52.33"/>
				<rect x="1718.64" y="574.96" class="st2" width="34.89" height="52.33"/>
				<rect x="1579.09" y="627.29" class="st2" width="34.89" height="52.33"/>
				<rect x="1439.53" y="313.29" class="st2" width="34.89" height="52.33"/>
				<rect x="1788.42" y="313.29" class="st2" width="34.89" height="52.33"/>
				<rect x="1474.42" y="313.29" class="st2" width="34.89" height="52.33"/>
				<rect x="1753.53" y="313.29" class="st2" width="34.89" height="52.33"/>
				<rect x="1509.31" y="313.29" class="st2" width="34.89" height="52.33"/>
				<rect x="1718.64" y="313.29" class="st2" width="34.89" height="52.33"/>
				<rect x="1544.2" y="313.29" class="st2" width="34.89" height="52.33"/>
				<rect x="1683.76" y="313.29" class="st2" width="34.89" height="52.33"/>
				<rect x="1648.87" y="627.29" class="st2" width="34.89" height="52.33"/>
				<rect x="1613.98" y="679.62" class="st2" width="34.89" height="52.33"/>
				<rect x="1648.87" y="365.62" class="st2" width="34.89" height="52.33"/>
				<rect x="1579.09" y="365.62" class="st2" width="34.89" height="52.33"/>
				<rect x="1613.98" y="417.96" class="st2" width="34.89" height="52.33"/>
			</g>
			<g>
				<rect x="1439.53" y="417.96" class="st2" width="34.89" height="52.33"/>
				<rect x="1788.42" y="417.96" class="st2" width="34.89" height="52.33"/>
				<rect x="1474.42" y="470.29" class="st2" width="34.89" height="52.33"/>
				<rect x="1439.53" y="470.29" class="st2" width="34.89" height="52.33"/>
				<rect x="1753.53" y="470.29" class="st2" width="34.89" height="52.33"/>
				<rect x="1788.42" y="470.29" class="st2" width="34.89" height="52.33"/>
				<rect x="1509.31" y="522.62" class="st2" width="34.89" height="52.33"/>
				<rect x="1718.64" y="522.62" class="st2" width="34.89" height="52.33"/>
				<rect x="1439.53" y="365.62" class="st2" width="34.89" height="52.33"/>
				<rect x="1788.42" y="365.62" class="st2" width="34.89" height="52.33"/>
				<rect x="1474.42" y="365.62" class="st2" width="34.89" height="52.33"/>
				<rect x="1753.53" y="365.62" class="st2" width="34.89" height="52.33"/>
				<rect x="1509.31" y="365.62" class="st2" width="34.89" height="52.33"/>
				<rect x="1718.64" y="365.62" class="st2" width="34.89" height="52.33"/>
				<rect x="1544.2" y="365.62" class="st2" width="34.89" height="52.33"/>
				<rect x="1683.76" y="365.62" class="st2" width="34.89" height="52.33"/>
				<rect x="1544.2" y="522.62" class="st2" width="34.89" height="52.33"/>
				<rect x="1683.76" y="522.62" class="st2" width="34.89" height="52.33"/>
				<rect x="1648.87" y="417.96" class="st2" width="34.89" height="52.33"/>
				<rect x="1579.09" y="417.96" class="st2" width="34.89" height="52.33"/>
				<rect x="1648.87" y="574.96" class="st2" width="34.89" height="52.33"/>
				<rect x="1579.09" y="574.96" class="st2" width="34.89" height="52.33"/>
				<rect x="1613.98" y="470.29" class="st2" width="34.89" height="52.33"/>
				<rect x="1613.98" y="627.29" class="st2" width="34.89" height="52.33"/>
			</g>
		</g>
		<g>
			<g>
				<g>
					<rect x="1404.64" y="463.58" class="st3" width="34.89" height="52.33"/>
					<rect x="1683.76" y="463.58" class="st3" width="34.89" height="52.33"/>
					<rect x="1439.53" y="463.58" class="st3" width="34.89" height="52.33"/>
					<rect x="1648.87" y="463.58" class="st3" width="34.89" height="52.33"/>
					<rect x="1439.53" y="515.92" class="st3" width="34.89" height="52.33"/>
					<rect x="1648.87" y="515.92" class="st3" width="34.89" height="52.33"/>
					<rect x="1474.42" y="463.58" class="st3" width="34.89" height="52.33"/>
					<rect x="1613.98" y="463.58" class="st3" width="34.89" height="52.33"/>
					<rect x="1474.42" y="515.92" class="st3" width="34.89" height="52.33"/>
					<rect x="1613.98" y="515.92" class="st3" width="34.89" height="52.33"/>
					<rect x="1579.09" y="515.92" class="st3" width="34.89" height="52.33"/>
					<rect x="1509.31" y="515.92" class="st3" width="34.89" height="52.33"/>
					<rect x="1579.09" y="568.25" class="st3" width="34.89" height="52.33"/>
					<rect x="1509.31" y="568.25" class="st3" width="34.89" height="52.33"/>
					<rect x="1544.2" y="568.25" class="st3" width="34.89" height="52.33"/>
					<rect x="1544.2" y="620.58" class="st3" width="34.89" height="52.33"/>
				</g>
			</g>
			<g>
				<rect x="1334.86" y="411.25" class="st3" width="34.89" height="52.33"/>
				<rect x="1753.53" y="411.25" class="st3" width="34.89" height="52.33"/>
				<rect x="1334.86" y="463.58" class="st3" width="34.89" height="52.33"/>
				<rect x="1334.86" y="515.92" class="st3" width="34.89" height="52.33"/>
				<rect x="1753.53" y="463.58" class="st3" width="34.89" height="52.33"/>
				<rect x="1753.53" y="515.92" class="st3" width="34.89" height="52.33"/>
				<rect x="1369.75" y="568.25" class="st3" width="34.89" height="52.33"/>
				<rect x="1404.64" y="568.25" class="st3" width="34.89" height="52.33"/>
				<rect x="1439.53" y="620.58" class="st3" width="34.89" height="52.33"/>
				<rect x="1683.76" y="568.25" class="st3" width="34.89" height="52.33"/>
				<rect x="1718.64" y="568.25" class="st3" width="34.89" height="52.33"/>
				<rect x="1474.42" y="620.58" class="st3" width="34.89" height="52.33"/>
				<rect x="1613.98" y="620.58" class="st3" width="34.89" height="52.33"/>
				<rect x="1648.87" y="620.58" class="st3" width="34.89" height="52.33"/>
				<rect x="1509.31" y="672.92" class="st3" width="34.89" height="52.33"/>
				<rect x="1369.75" y="358.92" class="st3" width="34.89" height="52.33"/>
				<rect x="1718.64" y="358.92" class="st3" width="34.89" height="52.33"/>
				<rect x="1404.64" y="358.92" class="st3" width="34.89" height="52.33"/>
				<rect x="1683.76" y="358.92" class="st3" width="34.89" height="52.33"/>
				<rect x="1439.53" y="358.92" class="st3" width="34.89" height="52.33"/>
				<rect x="1648.87" y="358.92" class="st3" width="34.89" height="52.33"/>
				<rect x="1474.42" y="358.92" class="st3" width="34.89" height="52.33"/>
				<rect x="1613.98" y="358.92" class="st3" width="34.89" height="52.33"/>
				<rect x="1579.09" y="672.92" class="st3" width="34.89" height="52.33"/>
				<rect x="1544.2" y="725.25" class="st3" width="34.89" height="52.33"/>
				<rect x="1579.09" y="411.25" class="st3" width="34.89" height="52.33"/>
				<rect x="1509.31" y="411.25" class="st3" width="34.89" height="52.33"/>
				<rect x="1544.2" y="463.58" class="st3" width="34.89" height="52.33"/>
			</g>
			<g>
				<rect x="1369.75" y="463.58" class="st3" width="34.89" height="52.33"/>
				<rect x="1718.64" y="463.58" class="st3" width="34.89" height="52.33"/>
				<rect x="1404.64" y="515.92" class="st3" width="34.89" height="52.33"/>
				<rect x="1369.75" y="515.92" class="st3" width="34.89" height="52.33"/>
				<rect x="1683.76" y="515.92" class="st3" width="34.89" height="52.33"/>
				<rect x="1718.64" y="515.92" class="st3" width="34.89" height="52.33"/>
				<rect x="1439.53" y="568.25" class="st3" width="34.89" height="52.33"/>
				<rect x="1648.87" y="568.25" class="st3" width="34.89" height="52.33"/>
				<rect x="1369.75" y="411.25" class="st3" width="34.89" height="52.33"/>
				<rect x="1718.64" y="411.25" class="st3" width="34.89" height="52.33"/>
				<rect x="1404.64" y="411.25" class="st3" width="34.89" height="52.33"/>
				<rect x="1683.76" y="411.25" class="st3" width="34.89" height="52.33"/>
				<rect x="1439.53" y="411.25" class="st3" width="34.89" height="52.33"/>
				<rect x="1648.87" y="411.25" class="st3" width="34.89" height="52.33"/>
				<rect x="1474.42" y="411.25" class="st3" width="34.89" height="52.33"/>
				<rect x="1613.98" y="411.25" class="st3" width="34.89" height="52.33"/>
				<rect x="1474.42" y="568.25" class="st3" width="34.89" height="52.33"/>
				<rect x="1613.98" y="568.25" class="st3" width="34.89" height="52.33"/>
				<rect x="1579.09" y="463.58" class="st3" width="34.89" height="52.33"/>
				<rect x="1509.31" y="463.58" class="st3" width="34.89" height="52.33"/>
				<rect x="1579.09" y="620.58" class="st3" width="34.89" height="52.33"/>
				<rect x="1509.31" y="620.58" class="st3" width="34.89" height="52.33"/>
				<rect x="1544.2" y="515.92" class="st3" width="34.89" height="52.33"/>
				<rect x="1544.2" y="672.92" class="st3" width="34.89" height="52.33"/>
			</g>
		</g>
		<g>
			<g>
				<g>
					<rect x="1317.42" y="515.92" class="st4" width="34.89" height="52.33"/>
					<rect x="1596.53" y="515.92" class="st4" width="34.89" height="52.33"/>
					<rect x="1352.31" y="515.92" class="st4" width="34.89" height="52.33"/>
					<rect x="1561.64" y="515.92" class="st4" width="34.89" height="52.33"/>
					<rect x="1352.31" y="568.25" class="st4" width="34.89" height="52.33"/>
					<rect x="1561.64" y="568.25" class="st4" width="34.89" height="52.33"/>
					<rect x="1387.2" y="515.92" class="st4" width="34.89" height="52.33"/>
					<rect x="1526.75" y="515.92" class="st4" width="34.89" height="52.33"/>
					<rect x="1387.2" y="568.25" class="st4" width="34.89" height="52.33"/>
					<rect x="1526.75" y="568.25" class="st4" width="34.89" height="52.33"/>
					<rect x="1491.87" y="568.25" class="st4" width="34.89" height="52.33"/>
					<rect x="1422.09" y="568.25" class="st4" width="34.89" height="52.33"/>
					<rect x="1491.87" y="620.58" class="st4" width="34.89" height="52.33"/>
					<rect x="1422.09" y="620.58" class="st4" width="34.89" height="52.33"/>
					<rect x="1456.98" y="620.58" class="st4" width="34.89" height="52.33"/>
					<rect x="1456.98" y="672.92" class="st4" width="34.89" height="52.33"/>
				</g>
			</g>
			<g>
				<rect x="1247.64" y="463.58" class="st4" width="34.89" height="52.33"/>
				<rect x="1666.31" y="463.58" class="st4" width="34.89" height="52.33"/>
				<rect x="1247.64" y="515.92" class="st4" width="34.89" height="52.33"/>
				<rect x="1247.64" y="568.25" class="st4" width="34.89" height="52.33"/>
				<rect x="1666.31" y="515.92" class="st4" width="34.89" height="52.33"/>
				<rect x="1666.31" y="568.25" class="st4" width="34.89" height="52.33"/>
				<rect x="1282.53" y="620.58" class="st4" width="34.89" height="52.33"/>
				<rect x="1317.42" y="620.58" class="st4" width="34.89" height="52.33"/>
				<rect x="1352.31" y="672.92" class="st4" width="34.89" height="52.33"/>
				<rect x="1596.53" y="620.58" class="st4" width="34.89" height="52.33"/>
				<rect x="1631.42" y="620.58" class="st4" width="34.89" height="52.33"/>
				<rect x="1387.2" y="672.92" class="st4" width="34.89" height="52.33"/>
				<rect x="1526.75" y="672.92" class="st4" width="34.89" height="52.33"/>
				<rect x="1561.64" y="672.92" class="st4" width="34.89" height="52.33"/>
				<rect x="1422.09" y="725.25" class="st4" width="34.89" height="52.33"/>
				<rect x="1282.53" y="411.25" class="st4" width="34.89" height="52.33"/>
				<rect x="1631.42" y="411.25" class="st4" width="34.89" height="52.33"/>
				<rect x="1317.42" y="411.25" class="st4" width="34.89" height="52.33"/>
				<rect x="1596.53" y="411.25" class="st4" width="34.89" height="52.33"/>
				<rect x="1352.31" y="411.25" class="st4" width="34.89" height="52.33"/>
				<rect x="1561.64" y="411.25" class="st4" width="34.89" height="52.33"/>
				<rect x="1387.2" y="411.25" class="st4" width="34.89" height="52.33"/>
				<rect x="1526.75" y="411.25" class="st4" width="34.89" height="52.33"/>
				<rect x="1491.87" y="725.25" class="st4" width="34.89" height="52.33"/>
				<rect x="1456.98" y="777.58" class="st4" width="34.89" height="52.33"/>
				<rect x="1491.87" y="463.58" class="st4" width="34.89" height="52.33"/>
				<rect x="1422.09" y="463.58" class="st4" width="34.89" height="52.33"/>
				<rect x="1456.98" y="515.92" class="st4" width="34.89" height="52.33"/>
			</g>
			<g>
				<rect x="1282.53" y="515.92" class="st4" width="34.89" height="52.33"/>
				<rect x="1631.42" y="515.92" class="st4" width="34.89" height="52.33"/>
				<rect x="1317.42" y="568.25" class="st4" width="34.89" height="52.33"/>
				<rect x="1282.53" y="568.25" class="st4" width="34.89" height="52.33"/>
				<rect x="1596.53" y="568.25" class="st4" width="34.89" height="52.33"/>
				<rect x="1631.42" y="568.25" class="st4" width="34.89" height="52.33"/>
				<rect x="1352.31" y="620.58" class="st4" width="34.89" height="52.33"/>
				<rect x="1561.64" y="620.58" class="st4" width="34.89" height="52.33"/>
				<rect x="1282.53" y="463.58" class="st4" width="34.89" height="52.33"/>
				<rect x="1631.42" y="463.58" class="st4" width="34.89" height="52.33"/>
				<rect x="1317.42" y="463.58" class="st4" width="34.89" height="52.33"/>
				<rect x="1596.53" y="463.58" class="st4" width="34.89" height="52.33"/>
				<rect x="1352.31" y="463.58" class="st4" width="34.89" height="52.33"/>
				<rect x="1561.64" y="463.58" class="st4" width="34.89" height="52.33"/>
				<rect x="1387.2" y="463.58" class="st4" width="34.89" height="52.33"/>
				<rect x="1526.75" y="463.58" class="st4" width="34.89" height="52.33"/>
				<rect x="1387.2" y="620.58" class="st4" width="34.89" height="52.33"/>
				<rect x="1526.75" y="620.58" class="st4" width="34.89" height="52.33"/>
				<rect x="1491.87" y="515.92" class="st4" width="34.89" height="52.33"/>
				<rect x="1422.09" y="515.92" class="st4" width="34.89" height="52.33"/>
				<rect x="1491.87" y="672.92" class="st4" width="34.89" height="52.33"/>
				<rect x="1422.09" y="672.92" class="st4" width="34.89" height="52.33"/>
				<rect x="1456.98" y="568.25" class="st4" width="34.89" height="52.33"/>
				<rect x="1456.98" y="725.25" class="st4" width="34.89" height="52.33"/>
			</g>
		</g>
		<g>
			<g>
				<g>
					<g>
						<rect x="1257.22" y="568.25" class="st5" width="34.89" height="52.33"/>
					</g>
					<g>
						<rect x="1536.33" y="568.25" class="st5" width="34.89" height="52.33"/>
					</g>
					<g>
						<rect x="1292.11" y="568.25" class="st5" width="34.89" height="52.33"/>
					</g>
					<g>
						<rect x="1501.44" y="568.25" class="st5" width="34.89" height="52.33"/>
					</g>
					<g>
						<rect x="1292.11" y="620.58" class="st5" width="34.89" height="52.33"/>
					</g>
					<g>
						<rect x="1501.44" y="620.58" class="st5" width="34.89" height="52.33"/>
					</g>
					<g>
						<rect x="1327" y="568.25" class="st5" width="34.89" height="52.33"/>
					</g>
					<g>
						<rect x="1466.55" y="568.25" class="st5" width="34.89" height="52.33"/>
					</g>
					<g>
						<rect x="1327" y="620.58" class="st5" width="34.89" height="52.33"/>
					</g>
					<g>
						<rect x="1466.55" y="620.58" class="st5" width="34.89" height="52.33"/>
					</g>
					<g>
						<rect x="1431.66" y="620.58" class="st5" width="34.89" height="52.33"/>
					</g>
					<g>
						<rect x="1361.89" y="620.58" class="st5" width="34.89" height="52.33"/>
					</g>
					<g>
						<rect x="1431.66" y="672.92" class="st5" width="34.89" height="52.33"/>
					</g>
					<g>
						<rect x="1361.89" y="672.92" class="st5" width="34.89" height="52.33"/>
					</g>
					<g>
						<rect x="1396.78" y="672.92" class="st5" width="34.89" height="52.33"/>
					</g>
					<g>
						<rect x="1396.78" y="725.25" class="st5" width="34.89" height="52.33"/>
					</g>
				</g>
			</g>
			<g>
				<g>
					<rect x="1187.44" y="515.92" class="st5" width="34.89" height="52.33"/>
				</g>
				<g>
					<rect x="1606.11" y="515.92" class="st5" width="34.89" height="52.33"/>
				</g>
				<g>
					<rect x="1187.44" y="568.25" class="st5" width="34.89" height="52.33"/>
				</g>
				<g>
					<rect x="1187.44" y="620.58" class="st5" width="34.89" height="52.33"/>
				</g>
				<g>
					<rect x="1606.11" y="568.25" class="st5" width="34.89" height="52.33"/>
				</g>
				<g>
					<rect x="1606.11" y="620.58" class="st5" width="34.89" height="52.33"/>
				</g>
				<g>
					<rect x="1222.33" y="672.92" class="st5" width="34.89" height="52.33"/>
				</g>
				<g>
					<rect x="1257.22" y="672.92" class="st5" width="34.89" height="52.33"/>
				</g>
				<g>
					<rect x="1292.11" y="725.25" class="st5" width="34.89" height="52.33"/>
				</g>
				<g>
					<rect x="1536.33" y="672.92" class="st5" width="34.89" height="52.33"/>
				</g>
				<g>
					<rect x="1571.22" y="672.92" class="st5" width="34.89" height="52.33"/>
				</g>
				<g>
					<rect x="1327" y="725.25" class="st5" width="34.89" height="52.33"/>
				</g>
				<g>
					<rect x="1466.55" y="725.25" class="st5" width="34.89" height="52.33"/>
				</g>
				<g>
					<rect x="1501.44" y="725.25" class="st5" width="34.89" height="52.33"/>
				</g>
				<g>
					<rect x="1361.89" y="777.58" class="st5" width="34.89" height="52.33"/>
				</g>
				<g>
					<rect x="1222.33" y="463.58" class="st5" width="34.89" height="52.33"/>
				</g>
				<g>
					<rect x="1571.22" y="463.58" class="st5" width="34.89" height="52.33"/>
				</g>
				<g>
					<rect x="1257.22" y="463.58" class="st5" width="34.89" height="52.33"/>
				</g>
				<g>
					<rect x="1536.33" y="463.58" class="st5" width="34.89" height="52.33"/>
				</g>
				<g>
					<rect x="1292.11" y="463.58" class="st5" width="34.89" height="52.33"/>
				</g>
				<g>
					<rect x="1501.44" y="463.58" class="st5" width="34.89" height="52.33"/>
				</g>
				<g>
					<rect x="1327" y="463.58" class="st5" width="34.89" height="52.33"/>
				</g>
				<g>
					<rect x="1466.55" y="463.58" class="st5" width="34.89" height="52.33"/>
				</g>
				<g>
					<rect x="1431.66" y="777.58" class="st5" width="34.89" height="52.33"/>
				</g>
				<g>
					<rect x="1396.78" y="829.92" class="st5" width="34.89" height="52.33"/>
				</g>
				<g>
					<rect x="1431.66" y="515.92" class="st5" width="34.89" height="52.33"/>
				</g>
				<g>
					<rect x="1361.89" y="515.92" class="st5" width="34.89" height="52.33"/>
				</g>
				<g>
					<rect x="1396.78" y="568.25" class="st5" width="34.89" height="52.33"/>
				</g>
			</g>
			<g>
				<g>
					<rect x="1222.33" y="568.25" class="st5" width="34.89" height="52.33"/>
				</g>
				<g>
					<rect x="1571.22" y="568.25" class="st5" width="34.89" height="52.33"/>
				</g>
				<g>
					<rect x="1257.22" y="620.58" class="st5" width="34.89" height="52.33"/>
				</g>
				<g>
					<rect x="1222.33" y="620.58" class="st5" width="34.89" height="52.33"/>
				</g>
				<g>
					<rect x="1536.33" y="620.58" class="st5" width="34.89" height="52.33"/>
				</g>
				<g>
					<rect x="1571.22" y="620.58" class="st5" width="34.89" height="52.33"/>
				</g>
				<g>
					<rect x="1292.11" y="672.92" class="st5" width="34.89" height="52.33"/>
				</g>
				<g>
					<rect x="1501.44" y="672.92" class="st5" width="34.89" height="52.33"/>
				</g>
				<g>
					<rect x="1222.33" y="515.92" class="st5" width="34.89" height="52.33"/>
				</g>
				<g>
					<rect x="1571.22" y="515.92" class="st5" width="34.89" height="52.33"/>
				</g>
				<g>
					<rect x="1257.22" y="515.92" class="st5" width="34.89" height="52.33"/>
				</g>
				<g>
					<rect x="1536.33" y="515.92" class="st5" width="34.89" height="52.33"/>
				</g>
				<g>
					<rect x="1292.11" y="515.92" class="st5" width="34.89" height="52.33"/>
				</g>
				<g>
					<rect x="1501.44" y="515.92" class="st5" width="34.89" height="52.33"/>
				</g>
				<g>
					<rect x="1327" y="515.92" class="st5" width="34.89" height="52.33"/>
				</g>
				<g>
					<rect x="1466.55" y="515.92" class="st5" width="34.89" height="52.33"/>
				</g>
				<g>
					<rect x="1327" y="672.92" class="st5" width="34.89" height="52.33"/>
				</g>
				<g>
					<rect x="1466.55" y="672.92" class="st5" width="34.89" height="52.33"/>
				</g>
				<g>
					<rect x="1431.66" y="568.25" class="st5" width="34.89" height="52.33"/>
				</g>
				<g>
					<rect x="1361.89" y="568.25" class="st5" width="34.89" height="52.33"/>
				</g>
				<g>
					<rect x="1431.66" y="725.25" class="st5" width="34.89" height="52.33"/>
				</g>
				<g>
					<rect x="1361.89" y="725.25" class="st5" width="34.89" height="52.33"/>
				</g>
				<g>
					<rect x="1396.78" y="620.58" class="st5" width="34.89" height="52.33"/>
				</g>
				<g>
					<rect x="1396.78" y="777.58" class="st5" width="34.89" height="52.33"/>
				</g>
			</g>
		</g>
		<g>
			<g>
				<g>
					<rect x="1187.44" y="568.25" class="st6" width="34.89" height="52.33"/>
					<rect x="1466.55" y="568.25" class="st6" width="34.89" height="52.33"/>
					<rect x="1222.33" y="568.25" class="st6" width="34.89" height="52.33"/>
					<rect x="1431.66" y="568.25" class="st6" width="34.89" height="52.33"/>
					<rect x="1222.33" y="620.58" class="st6" width="34.89" height="52.33"/>
					<rect x="1431.66" y="620.58" class="st6" width="34.89" height="52.33"/>
					<rect x="1257.22" y="568.25" class="st6" width="34.89" height="52.33"/>
					<rect x="1396.78" y="568.25" class="st6" width="34.89" height="52.33"/>
					<rect x="1257.22" y="620.58" class="st6" width="34.89" height="52.33"/>
					<rect x="1396.78" y="620.58" class="st6" width="34.89" height="52.33"/>
					<rect x="1361.89" y="620.58" class="st6" width="34.89" height="52.33"/>
					<rect x="1292.11" y="620.58" class="st6" width="34.89" height="52.33"/>
					<rect x="1361.89" y="672.92" class="st6" width="34.89" height="52.33"/>
					<rect x="1292.11" y="672.92" class="st6" width="34.89" height="52.33"/>
					<rect x="1327" y="672.92" class="st6" width="34.89" height="52.33"/>
					<rect x="1327" y="725.25" class="st6" width="34.89" height="52.33"/>
				</g>
			</g>
			<g>
				<rect x="1117.66" y="515.92" class="st6" width="34.89" height="52.33"/>
				<rect x="1536.33" y="515.92" class="st6" width="34.89" height="52.33"/>
				<rect x="1117.66" y="568.25" class="st6" width="34.89" height="52.33"/>
				<rect x="1117.66" y="620.58" class="st6" width="34.89" height="52.33"/>
				<rect x="1536.33" y="568.25" class="st6" width="34.89" height="52.33"/>
				<rect x="1536.33" y="620.58" class="st6" width="34.89" height="52.33"/>
				<rect x="1152.55" y="672.92" class="st6" width="34.89" height="52.33"/>
				<rect x="1187.44" y="672.92" class="st6" width="34.89" height="52.33"/>
				<rect x="1222.33" y="725.25" class="st6" width="34.89" height="52.33"/>
				<rect x="1466.55" y="672.92" class="st6" width="34.89" height="52.33"/>
				<rect x="1501.44" y="672.92" class="st6" width="34.89" height="52.33"/>
				<rect x="1257.22" y="725.25" class="st6" width="34.89" height="52.33"/>
				<rect x="1396.78" y="725.25" class="st6" width="34.89" height="52.33"/>
				<rect x="1431.66" y="725.25" class="st6" width="34.89" height="52.33"/>
				<rect x="1292.11" y="777.58" class="st6" width="34.89" height="52.33"/>
				<rect x="1152.55" y="463.58" class="st6" width="34.89" height="52.33"/>
				<rect x="1501.44" y="463.58" class="st6" width="34.89" height="52.33"/>
				<rect x="1187.44" y="463.58" class="st6" width="34.89" height="52.33"/>
				<rect x="1466.55" y="463.58" class="st6" width="34.89" height="52.33"/>
				<rect x="1222.33" y="463.58" class="st6" width="34.89" height="52.33"/>
				<rect x="1431.66" y="463.58" class="st6" width="34.89" height="52.33"/>
				<rect x="1257.22" y="463.58" class="st6" width="34.89" height="52.33"/>
				<rect x="1396.78" y="463.58" class="st6" width="34.89" height="52.33"/>
				<rect x="1361.89" y="777.58" class="st6" width="34.89" height="52.33"/>
				<rect x="1327" y="829.92" class="st6" width="34.89" height="52.33"/>
				<rect x="1361.89" y="515.92" class="st6" width="34.89" height="52.33"/>
				<rect x="1292.11" y="515.92" class="st6" width="34.89" height="52.33"/>
				<rect x="1327" y="568.25" class="st6" width="34.89" height="52.33"/>
			</g>
			<g>
				<rect x="1152.55" y="568.25" class="st6" width="34.89" height="52.33"/>
				<rect x="1501.44" y="568.25" class="st6" width="34.89" height="52.33"/>
				<rect x="1187.44" y="620.58" class="st6" width="34.89" height="52.33"/>
				<rect x="1152.55" y="620.58" class="st6" width="34.89" height="52.33"/>
				<rect x="1466.55" y="620.58" class="st6" width="34.89" height="52.33"/>
				<rect x="1501.44" y="620.58" class="st6" width="34.89" height="52.33"/>
				<rect x="1222.33" y="672.92" class="st6" width="34.89" height="52.33"/>
				<rect x="1431.66" y="672.92" class="st6" width="34.89" height="52.33"/>
				<rect x="1152.55" y="515.92" class="st6" width="34.89" height="52.33"/>
				<rect x="1501.44" y="515.92" class="st6" width="34.89" height="52.33"/>
				<rect x="1187.44" y="515.92" class="st6" width="34.89" height="52.33"/>
				<rect x="1466.55" y="515.92" class="st6" width="34.89" height="52.33"/>
				<rect x="1222.33" y="515.92" class="st6" width="34.89" height="52.33"/>
				<rect x="1431.66" y="515.92" class="st6" width="34.89" height="52.33"/>
				<rect x="1257.22" y="515.92" class="st6" width="34.89" height="52.33"/>
				<rect x="1396.78" y="515.92" class="st6" width="34.89" height="52.33"/>
				<rect x="1257.22" y="672.92" class="st6" width="34.89" height="52.33"/>
				<rect x="1396.78" y="672.92" class="st6" width="34.89" height="52.33"/>
				<rect x="1361.89" y="568.25" class="st6" width="34.89" height="52.33"/>
				<rect x="1292.11" y="568.25" class="st6" width="34.89" height="52.33"/>
				<rect x="1361.89" y="725.25" class="st6" width="34.89" height="52.33"/>
				<rect x="1292.11" y="725.25" class="st6" width="34.89" height="52.33"/>
				<rect x="1327" y="620.58" class="st6" width="34.89" height="52.33"/>
				<rect x="1327" y="777.58" class="st6" width="34.89" height="52.33"/>
			</g>
		</g>
		<g>
			<g>
				<g>
					<g>
						<rect x="1152.55" y="542.08" class="st7" width="34.89" height="52.33"/>
					</g>
					<g>
						<rect x="1431.66" y="542.08" class="st7" width="34.89" height="52.33"/>
					</g>
					<g>
						<rect x="1187.44" y="542.08" class="st7" width="34.89" height="52.33"/>
					</g>
					<g>
						<rect x="1396.78" y="542.08" class="st7" width="34.89" height="52.33"/>
					</g>
					<g>
						<rect x="1187.44" y="594.42" class="st7" width="34.89" height="52.33"/>
					</g>
					<g>
						<rect x="1396.78" y="594.42" class="st7" width="34.89" height="52.33"/>
					</g>
					<g>
						<rect x="1222.33" y="542.08" class="st7" width="34.89" height="52.33"/>
					</g>
					<g>
						<rect x="1361.89" y="542.08" class="st7" width="34.89" height="52.33"/>
					</g>
					<g>
						<rect x="1222.33" y="594.42" class="st7" width="34.89" height="52.33"/>
					</g>
					<g>
						<rect x="1361.89" y="594.42" class="st7" width="34.89" height="52.33"/>
					</g>
					<g>
						<rect x="1327" y="594.42" class="st7" width="34.89" height="52.33"/>
					</g>
					<g>
						<rect x="1257.22" y="594.42" class="st7" width="34.89" height="52.33"/>
					</g>
					<g>
						<rect x="1327" y="646.75" class="st7" width="34.89" height="52.33"/>
					</g>
					<g>
						<rect x="1257.22" y="646.75" class="st7" width="34.89" height="52.33"/>
					</g>
					<g>
						<rect x="1292.11" y="646.75" class="st7" width="34.89" height="52.33"/>
					</g>
					<g>
						<rect x="1292.11" y="699.08" class="st7" width="34.89" height="52.33"/>
					</g>
				</g>
			</g>
			<g>
				<g>
					<rect x="1082.77" y="489.75" class="st7" width="34.89" height="52.33"/>
				</g>
				<g>
					<rect x="1501.44" y="489.75" class="st7" width="34.89" height="52.33"/>
				</g>
				<g>
					<rect x="1082.77" y="542.08" class="st7" width="34.89" height="52.33"/>
				</g>
				<g>
					<rect x="1082.77" y="594.42" class="st7" width="34.89" height="52.33"/>
				</g>
				<g>
					<rect x="1501.44" y="542.08" class="st7" width="34.89" height="52.33"/>
				</g>
				<g>
					<rect x="1501.44" y="594.42" class="st7" width="34.89" height="52.33"/>
				</g>
				<g>
					<rect x="1117.66" y="646.75" class="st7" width="34.89" height="52.33"/>
				</g>
				<g>
					<rect x="1152.55" y="646.75" class="st7" width="34.89" height="52.33"/>
				</g>
				<g>
					<rect x="1187.44" y="699.08" class="st7" width="34.89" height="52.33"/>
				</g>
				<g>
					<rect x="1431.66" y="646.75" class="st7" width="34.89" height="52.33"/>
				</g>
				<g>
					<rect x="1466.55" y="646.75" class="st7" width="34.89" height="52.33"/>
				</g>
				<g>
					<rect x="1222.33" y="699.08" class="st7" width="34.89" height="52.33"/>
				</g>
				<g>
					<rect x="1361.89" y="699.08" class="st7" width="34.89" height="52.33"/>
				</g>
				<g>
					<rect x="1396.78" y="699.08" class="st7" width="34.89" height="52.33"/>
				</g>
				<g>
					<rect x="1257.22" y="751.42" class="st7" width="34.89" height="52.33"/>
				</g>
				<g>
					<rect x="1117.66" y="437.42" class="st7" width="34.89" height="52.33"/>
				</g>
				<g>
					<rect x="1466.55" y="437.42" class="st7" width="34.89" height="52.33"/>
				</g>
				<g>
					<rect x="1152.55" y="437.42" class="st7" width="34.89" height="52.33"/>
				</g>
				<g>
					<rect x="1431.66" y="437.42" class="st7" width="34.89" height="52.33"/>
				</g>
				<g>
					<rect x="1187.44" y="437.42" class="st7" width="34.89" height="52.33"/>
				</g>
				<g>
					<rect x="1396.78" y="437.42" class="st7" width="34.89" height="52.33"/>
				</g>
				<g>
					<rect x="1222.33" y="437.42" class="st7" width="34.89" height="52.33"/>
				</g>
				<g>
					<rect x="1361.89" y="437.42" class="st7" width="34.89" height="52.33"/>
				</g>
				<g>
					<rect x="1327" y="751.42" class="st7" width="34.89" height="52.33"/>
				</g>
				<g>
					<rect x="1292.11" y="803.75" class="st7" width="34.89" height="52.33"/>
				</g>
				<g>
					<rect x="1327" y="489.75" class="st7" width="34.89" height="52.33"/>
				</g>
				<g>
					<rect x="1257.22" y="489.75" class="st7" width="34.89" height="52.33"/>
				</g>
				<g>
					<rect x="1292.11" y="542.08" class="st7" width="34.89" height="52.33"/>
				</g>
			</g>
			<g>
				<g>
					<rect x="1117.66" y="542.08" class="st7" width="34.89" height="52.33"/>
				</g>
				<g>
					<rect x="1466.55" y="542.08" class="st7" width="34.89" height="52.33"/>
				</g>
				<g>
					<rect x="1152.55" y="594.42" class="st7" width="34.89" height="52.33"/>
				</g>
				<g>
					<rect x="1117.66" y="594.42" class="st7" width="34.89" height="52.33"/>
				</g>
				<g>
					<rect x="1431.66" y="594.42" class="st7" width="34.89" height="52.33"/>
				</g>
				<g>
					<rect x="1466.55" y="594.42" class="st7" width="34.89" height="52.33"/>
				</g>
				<g>
					<rect x="1187.44" y="646.75" class="st7" width="34.89" height="52.33"/>
				</g>
				<g>
					<rect x="1396.78" y="646.75" class="st7" width="34.89" height="52.33"/>
				</g>
				<g>
					<rect x="1117.66" y="489.75" class="st7" width="34.89" height="52.33"/>
				</g>
				<g>
					<rect x="1466.55" y="489.75" class="st7" width="34.89" height="52.33"/>
				</g>
				<g>
					<rect x="1152.55" y="489.75" class="st7" width="34.89" height="52.33"/>
				</g>
				<g>
					<rect x="1431.66" y="489.75" class="st7" width="34.89" height="52.33"/>
				</g>
				<g>
					<rect x="1187.44" y="489.75" class="st7" width="34.89" height="52.33"/>
				</g>
				<g>
					<rect x="1396.78" y="489.75" class="st7" width="34.89" height="52.33"/>
				</g>
				<g>
					<rect x="1222.33" y="489.75" class="st7" width="34.89" height="52.33"/>
				</g>
				<g>
					<rect x="1361.89" y="489.75" class="st7" width="34.89" height="52.33"/>
				</g>
				<g>
					<rect x="1222.33" y="646.75" class="st7" width="34.89" height="52.33"/>
				</g>
				<g>
					<rect x="1361.89" y="646.75" class="st7" width="34.89" height="52.33"/>
				</g>
				<g>
					<rect x="1327" y="542.08" class="st7" width="34.89" height="52.33"/>
				</g>
				<g>
					<rect x="1257.22" y="542.08" class="st7" width="34.89" height="52.33"/>
				</g>
				<g>
					<rect x="1327" y="699.08" class="st7" width="34.89" height="52.33"/>
				</g>
				<g>
					<rect x="1257.22" y="699.08" class="st7" width="34.89" height="52.33"/>
				</g>
				<g>
					<rect x="1292.11" y="594.42" class="st7" width="34.89" height="52.33"/>
				</g>
				<g>
					<rect x="1292.11" y="751.42" class="st7" width="34.89" height="52.33"/>
				</g>
			</g>
		</g>
		<g>
			<rect x="1509.31" y="358.92" class="st8" width="34.89" height="52.33"/>
		</g>
		<g>
			<g>
				<g>
					<g>
						<rect x="1125.53" y="515.92" class="st9" width="34.89" height="52.33"/>
					</g>
					<g>
						<rect x="1404.64" y="515.92" class="st9" width="34.89" height="52.33"/>
					</g>
					<g>
						<rect x="1160.42" y="515.92" class="st9" width="34.89" height="52.33"/>
					</g>
					<g>
						<rect x="1369.75" y="515.92" class="st9" width="34.89" height="52.33"/>
					</g>
					<g>
						<rect x="1160.42" y="568.25" class="st9" width="34.89" height="52.33"/>
					</g>
					<g>
						<rect x="1369.75" y="568.25" class="st9" width="34.89" height="52.33"/>
					</g>
					<g>
						<rect x="1195.31" y="515.92" class="st9" width="34.89" height="52.33"/>
					</g>
					<g>
						<rect x="1334.86" y="515.92" class="st9" width="34.89" height="52.33"/>
					</g>
					<g>
						<rect x="1195.31" y="568.25" class="st9" width="34.89" height="52.33"/>
					</g>
					<g>
						<rect x="1334.86" y="568.25" class="st9" width="34.89" height="52.33"/>
					</g>
					<g>
						<rect x="1299.98" y="568.25" class="st9" width="34.89" height="52.33"/>
					</g>
					<g>
						<rect x="1230.2" y="568.25" class="st9" width="34.89" height="52.33"/>
					</g>
					<g>
						<rect x="1299.98" y="620.58" class="st9" width="34.89" height="52.33"/>
					</g>
					<g>
						<rect x="1230.2" y="620.58" class="st9" width="34.89" height="52.33"/>
					</g>
					<g>
						<rect x="1265.09" y="620.58" class="st9" width="34.89" height="52.33"/>
					</g>
					<g>
						<rect x="1265.09" y="672.92" class="st9" width="34.89" height="52.33"/>
					</g>
				</g>
			</g>
			<g>
				<g>
					<rect x="1055.75" y="463.58" class="st9" width="34.89" height="52.33"/>
				</g>
				<g>
					<rect x="1474.42" y="463.58" class="st9" width="34.89" height="52.33"/>
				</g>
				<g>
					<rect x="1055.75" y="515.92" class="st9" width="34.89" height="52.33"/>
				</g>
				<g>
					<rect x="1055.75" y="568.25" class="st9" width="34.89" height="52.33"/>
				</g>
				<g>
					<rect x="1474.42" y="515.92" class="st9" width="34.89" height="52.33"/>
				</g>
				<g>
					<rect x="1474.42" y="568.25" class="st9" width="34.89" height="52.33"/>
				</g>
				<g>
					<rect x="1090.64" y="620.58" class="st9" width="34.89" height="52.33"/>
				</g>
				<g>
					<rect x="1125.53" y="620.58" class="st9" width="34.89" height="52.33"/>
				</g>
				<g>
					<rect x="1160.42" y="672.92" class="st9" width="34.89" height="52.33"/>
				</g>
				<g>
					<rect x="1404.64" y="620.58" class="st9" width="34.89" height="52.33"/>
				</g>
				<g>
					<rect x="1439.53" y="620.58" class="st9" width="34.89" height="52.33"/>
				</g>
				<g>
					<rect x="1195.31" y="672.92" class="st9" width="34.89" height="52.33"/>
				</g>
				<g>
					<rect x="1334.86" y="672.92" class="st9" width="34.89" height="52.33"/>
				</g>
				<g>
					<rect x="1369.75" y="672.92" class="st9" width="34.89" height="52.33"/>
				</g>
				<g>
					<rect x="1230.2" y="725.25" class="st9" width="34.89" height="52.33"/>
				</g>
				<g>
					<rect x="1090.64" y="411.25" class="st9" width="34.89" height="52.33"/>
				</g>
				<g>
					<rect x="1439.53" y="411.25" class="st9" width="34.89" height="52.33"/>
				</g>
				<g>
					<rect x="1125.53" y="411.25" class="st9" width="34.89" height="52.33"/>
				</g>
				<g>
					<rect x="1404.64" y="411.25" class="st9" width="34.89" height="52.33"/>
				</g>
				<g>
					<rect x="1160.42" y="411.25" class="st9" width="34.89" height="52.33"/>
				</g>
				<g>
					<rect x="1369.75" y="411.25" class="st9" width="34.89" height="52.33"/>
				</g>
				<g>
					<rect x="1195.31" y="411.25" class="st9" width="34.89" height="52.33"/>
				</g>
				<g>
					<rect x="1334.86" y="411.25" class="st9" width="34.89" height="52.33"/>
				</g>
				<g>
					<rect x="1299.98" y="725.25" class="st9" width="34.89" height="52.33"/>
				</g>
				<g>
					<rect x="1265.09" y="777.58" class="st9" width="34.89" height="52.33"/>
				</g>
				<g>
					<rect x="1299.98" y="463.58" class="st9" width="34.89" height="52.33"/>
				</g>
				<g>
					<rect x="1230.2" y="463.58" class="st9" width="34.89" height="52.33"/>
				</g>
				<g>
					<rect x="1265.09" y="515.92" class="st9" width="34.89" height="52.33"/>
				</g>
			</g>
			<g>
				<g>
					<rect x="1090.64" y="515.92" class="st9" width="34.89" height="52.33"/>
				</g>
				<g>
					<rect x="1439.53" y="515.92" class="st9" width="34.89" height="52.33"/>
				</g>
				<g>
					<rect x="1125.53" y="568.25" class="st9" width="34.89" height="52.33"/>
				</g>
				<g>
					<rect x="1090.64" y="568.25" class="st9" width="34.89" height="52.33"/>
				</g>
				<g>
					<rect x="1404.64" y="568.25" class="st9" width="34.89" height="52.33"/>
				</g>
				<g>
					<rect x="1439.53" y="568.25" class="st9" width="34.89" height="52.33"/>
				</g>
				<g>
					<rect x="1160.42" y="620.58" class="st9" width="34.89" height="52.33"/>
				</g>
				<g>
					<rect x="1369.75" y="620.58" class="st9" width="34.89" height="52.33"/>
				</g>
				<g>
					<rect x="1090.64" y="463.58" class="st9" width="34.89" height="52.33"/>
				</g>
				<g>
					<rect x="1439.53" y="463.58" class="st9" width="34.89" height="52.33"/>
				</g>
				<g>
					<rect x="1125.53" y="463.58" class="st9" width="34.89" height="52.33"/>
				</g>
				<g>
					<rect x="1404.64" y="463.58" class="st9" width="34.89" height="52.33"/>
				</g>
				<g>
					<rect x="1160.42" y="463.58" class="st9" width="34.89" height="52.33"/>
				</g>
				<g>
					<rect x="1369.75" y="463.58" class="st9" width="34.89" height="52.33"/>
				</g>
				<g>
					<rect x="1195.31" y="463.58" class="st9" width="34.89" height="52.33"/>
				</g>
				<g>
					<rect x="1334.86" y="463.58" class="st9" width="34.89" height="52.33"/>
				</g>
				<g>
					<rect x="1195.31" y="620.58" class="st9" width="34.89" height="52.33"/>
				</g>
				<g>
					<rect x="1334.86" y="620.58" class="st9" width="34.89" height="52.33"/>
				</g>
				<g>
					<rect x="1299.98" y="515.92" class="st9" width="34.89" height="52.33"/>
				</g>
				<g>
					<rect x="1230.2" y="515.92" class="st9" width="34.89" height="52.33"/>
				</g>
				<g>
					<rect x="1299.98" y="672.92" class="st9" width="34.89" height="52.33"/>
				</g>
				<g>
					<rect x="1230.2" y="672.92" class="st9" width="34.89" height="52.33"/>
				</g>
				<g>
					<rect x="1265.09" y="568.25" class="st9" width="34.89" height="52.33"/>
				</g>
				<g>
					<rect x="1265.09" y="725.25" class="st9" width="34.89" height="52.33"/>
				</g>
			</g>
		</g>
	</g>
	<g style="clip-path:url(#SVGID_00000070107202884101736480000004886592544570137018_);">
		<g>
			<g>
				<rect x="46.27" y="668.52" class="st9" width="46.88" height="70.31"/>
			</g>
			<g>
				<rect x="46.27" y="738.83" class="st9" width="46.88" height="70.31"/>
			</g>
			<g>
				<rect x="46.27" y="809.15" class="st9" width="46.88" height="70.31"/>
			</g>
			<g>
				<rect x="-0.61" y="879.46" class="st9" width="46.88" height="70.31"/>
			</g>
			<g>
				<rect x="-0.61" y="598.21" class="st9" width="46.88" height="70.31"/>
			</g>
		</g>
		<g>
			<rect x="-0.61" y="738.83" class="st5" width="46.88" height="70.31"/>
		</g>
		<g>
			<rect x="-0.61" y="809.15" class="st5" width="46.88" height="70.31"/>
		</g>
		<g>
			<rect x="-0.61" y="668.52" class="st5" width="46.88" height="70.31"/>
		</g>
	</g>
	<g style="clip-path:url(#SVGID_00000070107202884101736480000004886592544570137018_);">
		<rect x="1878.73" y="69.11" class="st9" width="46.07" height="69.11"/>
	</g>
	<g style="clip-path:url(#SVGID_00000070107202884101736480000004886592544570137018_);">
		<rect x="1832.66" class="st9" width="46.07" height="69.11"/>
	</g>
	<g style="clip-path:url(#SVGID_00000070107202884101736480000004886592544570137018_);">
		<rect x="1924.81" class="st9" width="46.07" height="69.11"/>
	</g>
	<g style="clip-path:url(#SVGID_00000070107202884101736480000004886592544570137018_);">
		<rect x="1971.93" class="st5" width="46.07" height="69.11"/>
	</g>
</g>
</svg>